<?xml version="1.0" encoding="UTF-8" standalone="no"?>
<!-- Created with Inkscape (http://www.inkscape.org/) -->

<svg
   version="1.1"
   id="svg1"
   width="794.37598"
   height="828.63"
   viewBox="0 0 794.37636 828.63042"
   sodipodi:docname="logo_final.svg"
   inkscape:version="1.4 (86a8ad7, 2024-10-11)"
   inkscape:export-filename="logo_final.png"
   inkscape:export-xdpi="96"
   inkscape:export-ydpi="96"
   xmlns:inkscape="http://www.inkscape.org/namespaces/inkscape"
   xmlns:sodipodi="http://sodipodi.sourceforge.net/DTD/sodipodi-0.dtd"
   xmlns="http://www.w3.org/2000/svg"
   xmlns:svg="http://www.w3.org/2000/svg">
  <defs
     id="defs1" />
  <sodipodi:namedview
     id="namedview1"
     pagecolor="#ffffff"
     bordercolor="#000000"
     borderopacity="0.25"
     inkscape:showpageshadow="2"
     inkscape:pageopacity="0.0"
     inkscape:pagecheckerboard="0"
     inkscape:deskcolor="#d1d1d1"
     inkscape:zoom="0.34800243"
     inkscape:cx="-12.930944"
     inkscape:cy="389.3651"
     inkscape:window-width="1920"
     inkscape:window-height="1017"
     inkscape:window-x="-8"
     inkscape:window-y="-8"
     inkscape:window-maximized="1"
     inkscape:current-layer="g1" />
  <g
     inkscape:groupmode="layer"
     inkscape:label="Image"
     id="g1"
     transform="translate(-2222.7984,-22.107158)">
    <g
       id="g33"
       transform="translate(10.000221,10.000257)">
      <path
         style="fill:#000000"
         d="m 2580.4577,830.26337 c -32.0675,-2.12916 -79.8046,-12.52629 -103.4443,-22.53012 -1.65,-0.69824 -4.125,-1.57287 -5.5,-1.94362 -1.375,-0.37074 -3.4,-1.06935 -4.5,-1.55245 -9.6555,-4.24055 -16.5155,-6.99593 -17.4176,-6.99593 -0.5953,0 -1.0824,-0.45 -1.0824,-1 0,-0.55 -0.5823,-1 -1.294,-1 -2.0363,0 -29.7546,-14.32701 -37.706,-19.48945 -1.925,-1.2498 -6.65,-4.30976 -10.5,-6.79991 -3.85,-2.49014 -9.25,-6.13516 -12,-8.10004 -2.75,-1.96488 -5.8481,-4.14357 -6.8846,-4.84155 -1.0366,-0.69798 -4.1866,-3.10949 -7,-5.35891 -9.0038,-7.19869 -7.7177,-7.27155 -22.4062,1.26943 -18.0172,10.47651 -29.9566,19.58167 -47.2893,36.06341 -3.619,3.44136 -6.7716,6.25702 -7.0058,6.25702 -2.0656,0 7.477,-75.60998 11.9897,-95 1.9202,-8.25066 1.5567,-9.39582 -6.2739,-19.76345 -18.8738,-24.98883 -43.3202,-66.75644 -48.1327,-82.23655 -0.4274,-1.375 -1.6142,-4.06834 -2.6372,-5.98519 -1.023,-1.91686 -1.86,-3.87385 -1.86,-4.34887 0,-0.47503 -0.6418,-2.28169 -1.4261,-4.01481 -41.8437,-92.45744 -30.6689,-238.14895 25.4382,-331.65113 1.8152,-3.025 3.7926,-6.40228 4.3941,-7.50506 1.4355,-2.6315 16.8466,-25.84812 17.5872,-26.49494 0.3149,-0.275 2.3429,-2.975 4.5066,-6 2.1637,-3.025 4.185,-5.725 4.4918,-6 0.3068,-0.275 4.4329,-5.225 9.1693,-11 12.0064,-14.63944 38.4162,-40.51468 53.3389,-52.25928 0.55,-0.43287 3.7633,-2.96321 7.1407,-5.62298 13.887,-10.93643 51.145,-34.37038 58.1093,-36.548734 1.2375,-0.387075 2.25,-1.123448 2.25,-1.636385 0,-0.512936 0.4597,-0.932612 1.0216,-0.932612 0.5619,0 4.9494,-1.837367 9.75,-4.083037 4.8006,-2.24567 12.1034,-5.452629 16.2284,-7.126576 4.125,-1.673947 8.85,-3.613032 10.5,-4.30908 24.8022,-10.462725 60.854,-18.703268 103.9531,-23.761067 12.1271,-1.423142 10.6117,-0.302321 18.5498,-13.72024 15.113,-25.54598 14.9204,-25.377742 19.8665,-17.36072 2.328,3.773396 6.0659,9.78572 8.3066,13.36072 2.2406,3.575 4.8753,7.900848 5.8548,9.612995 3.9104,6.834569 4.4513,7.387005 7.2334,7.387005 5.3052,0 29.9364,3.221485 46.2358,6.047122 7.3435,1.273064 25.0399,5.390103 32.5,7.561106 8.8062,2.56272 21.3289,6.493555 23.5,7.376525 1.1,0.447373 3.575,1.36158 5.5,2.031571 1.925,0.669991 4.918,1.840406 6.6511,2.600921 1.7331,0.760515 3.4453,1.382755 3.8049,1.382755 0.6212,0 2.805,0.944549 15.544,6.723034 20.9878,9.520247 57.4047,30.213907 62,35.231047 0.275,0.30025 2.75,2.09934 5.5,3.99798 9.5691,6.60663 19.2179,14.54708 38.3354,31.54793 4.4046,3.91694 18.8113,18.76475 23.7722,24.5 2.1408,2.475 4.1563,4.725 4.4788,5 4.8604,4.14405 31.6316,41.04368 37.889,52.22385 0.8385,1.49812 3.2795,5.74185 5.4245,9.43052 9.4343,16.22422 18.4728,35.81203 27.3842,59.34563 44.9999,118.83796 22.3376,265.34265 -56.7699,367 -3.638,4.675 -6.9646,9.07634 -7.3924,9.78077 -0.4278,0.70442 -0.079,4.52942 0.7756,8.5 3.8953,18.10159 8.081,45.98677 10.165,67.71923 0.8175,8.525 1.9021,18.63576 2.4103,22.46836 1.1257,8.49053 1.4619,8.22424 -4.039,3.19978 -4.8669,-4.44547 -16.162,-14.5305 -21.9337,-19.58399 -1.925,-1.68545 -7.325,-5.65638 -12,-8.8243 -4.675,-3.16792 -8.65,-6.09735 -8.8334,-6.50985 -0.1833,-0.4125 -0.6998,-0.75 -1.1478,-0.75 -0.4479,0 -3.8804,-1.86266 -7.6277,-4.13924 -11.541,-7.0114 -12.5967,-7.27044 -16.6353,-4.0819 -1.8957,1.49663 -4.7537,3.69437 -6.3512,4.88388 -1.5976,1.1895 -4.9296,3.6848 -7.4046,5.54509 -12.1888,9.16151 -36.6324,24.03855 -53.5,32.56154 -7.0995,3.58731 -11.1561,5.48475 -23.2286,10.86522 -1.7757,0.7914 -6.2757,2.56031 -10,3.93091 -3.7243,1.37061 -7.6714,2.89695 -8.7714,3.39187 -1.1,0.49492 -5.825,2.09925 -10.5,3.56518 -4.675,1.46593 -10.3,3.26215 -12.5,3.99162 -4.5512,1.50903 -21.3579,5.60821 -32.5,7.92676 -7.2322,1.50495 -21.8989,3.7668 -36.5,5.62892 -10.2447,1.30654 -54.993,1.91917 -69.5557,0.95227 z"
         id="path19" />
      <path
         style="fill:#ffcc00"
         d="m 2834.2298,433.99125 c -0.644,-23.81042 -2.3886,-34.13755 -9.9251,-58.75 -11.3358,-37.02034 -35.2,-73.38507 -65.7913,-100.25421 -3.575,-3.14002 -7.242,-6.42312 -8.1488,-7.29578 -4.1621,-4.00535 -2.2941,1.8284 6.0129,18.77805 8.9817,18.32641 19.2866,39.76057 25.852,53.77194 1.9328,4.125 5.3194,11.325 7.5257,16 2.2062,4.675 6.1455,13.225 8.7539,19 2.6083,5.775 5.8795,12.975 7.2692,16 6.6568,14.49024 9.2529,20.29298 13.4217,30 2.4802,5.775 5.5164,12.75 6.7473,15.5 1.2308,2.75 3.2945,7.5875 4.586,10.75 3.7563,9.19841 4.2606,7.35688 3.6965,-13.5 z"
         id="path33" />
      <path
         style="fill:#ffcc00"
         d="m 2388.099,449.49125 c 0.9237,-2.0625 2.4713,-5.55 3.439,-7.75 15.4819,-35.19705 29.1133,-65.82188 32.4929,-73 4.2094,-8.94032 8.3024,-17.66825 15.4759,-33 7.8427,-16.76229 14.5563,-30.63849 23.6632,-48.90908 11.1245,-22.31814 10.911,-23.44967 -2.2159,-11.74901 -47.4265,42.2733 -74.0172,98.46539 -76.1433,160.90809 -0.6206,18.22826 0.01,20.81891 3.2882,13.5 z"
         id="path32" />
      <path
         style="fill:#d40000"
         d="m 2884.3793,574.49125 c 10.2495,-20.15931 21.4805,-55.70882 25.0373,-79.25 0.6232,-4.125 1.6205,-10.425 2.2162,-14 3.1604,-18.96601 1.9895,-66.2522 -2.2038,-89 -4.1405,-22.46104 -14.6221,-58.74818 -18.0388,-62.45 -0.4822,-0.5225 -0.8768,-1.56496 -0.8768,-2.31657 0,-3.38721 -19.831,-41.12486 -25.6589,-48.82782 -1.2876,-1.70192 -2.3411,-3.57692 -2.3411,-4.16667 0,-0.58975 -0.3459,-1.22227 -0.7688,-1.40561 -0.4228,-0.18333 -2.8971,-3.33799 -5.4984,-7.01035 -2.6013,-3.67236 -5.2929,-7.27236 -5.9813,-8 -0.6883,-0.72764 -3.9114,-4.69798 -7.1624,-8.82298 -18.9124,-23.99696 -55.5989,-54.44271 -85.0891,-70.61455 -33.3262,-18.27545 -78.3871,-34.07335 -70.3359,-24.65908 0.8342,0.9755 4.135,6.72363 7.335,12.77363 3.2,6.05 7.7287,14.6 10.0637,19 2.335,4.4 9.2429,17.675 15.3509,29.5 14.9635,28.96937 14.4309,28 15.3826,28 1.0609,0 16.5645,10.94675 23.2037,16.38359 14.0306,11.48966 26.6479,24.37539 37.3225,38.11641 3.4181,4.4 6.5815,8.46333 7.0297,9.02962 8.694,10.98456 21.745,36.0091 29.4508,56.47038 11.5084,30.55818 16.4582,72.64605 12.5675,106.86105 -1.1295,9.93274 -1.1295,9.93274 3.3985,21.28584 14.491,36.33377 22.7648,58.64128 29.7098,80.10311 2.5157,7.77425 3.2655,8.15635 5.8871,3 z"
         id="path31" />
      <path
         style="fill:#d40000"
         d="m 2341.8405,569.15925 c 3.6632,-10.90774 9.4724,-27.46074 11.2014,-31.918 0.7467,-1.925 3.374,-8.9 5.8383,-15.5 5.0865,-13.62242 10.1895,-26.57685 12.2115,-31 3.7038,-8.10201 4.3034,-11.2676 3.3497,-17.68607 -6.2465,-42.03858 2.7397,-94.18829 23.3166,-135.31393 5.3934,-10.77944 17.457,-30.64339 19.7376,-32.5 0.3378,-0.275 1.7035,-2.075 3.035,-4 11.468,-16.57975 38.0125,-41.68261 57.9828,-54.8336 7.5968,-5.00273 6.4739,-3.36605 18.6433,-27.17347 13.3434,-26.10411 21.7044,-42.03454 29.4818,-56.17256 8.254,-15.00457 8.7473,-14.64563 -11.1251,-8.09669 -54.4503,17.94408 -106.5965,53.72155 -141.0529,96.77632 -3.5213,4.4 -6.9321,8.55177 -7.5795,9.22615 -2.3419,2.43955 -18.22,26.96832 -22.6787,35.03473 -45.807,82.86956 -50.8456,181.78756 -13.6438,267.85484 2.8253,6.53636 5.3764,12.4658 5.6691,13.17654 1.1203,2.72014 2.8875,0.24093 5.6129,-7.87426 z"
         id="path30" />
      <path
         style="fill:#000080"
         d="m 2914.6917,662.99125 c 5.5833,-7.95743 11.7248,-17.2279 19.3774,-29.25 3.281,-5.15442 15.6729,-29.37834 19.6948,-38.5 12.3027,-27.90215 21.5374,-59.55337 27.2132,-93.2711 12.368,-73.47276 -0.7797,-157.64242 -35.338,-226.2289 -9.4663,-18.78727 -29.5045,-51.33518 -32.2192,-52.33333 -0.4986,-0.18334 -0.9065,-0.77222 -0.9065,-1.30864 0,-1.41444 -17.3384,-22.99807 -24.4795,-30.4731 -15.8691,-16.61133 -27.7124,-27.97187 -37.5205,-35.99111 -1.925,-1.5739 -3.725,-3.13636 -4,-3.47214 -2.3789,-2.90464 -37.7173,-27.34933 -48,-33.20312 -12.9891,-7.39449 -33.8973,-17.62833 -46.5,-22.760166 -10.1679,-4.140371 -32.1065,-11.682377 -40,-13.751139 -2.2,-0.576584 -6.7,-1.759078 -10,-2.627762 -14.8217,-3.901638 -48.1275,-9.57248 -56.25,-9.577482 -4.0703,-0.0025 -4.1129,1.245851 -0.25,7.336946 1.65,2.60178 3,4.893889 3,5.093576 0,0.199688 1.8099,3.34229 4.0221,6.983561 2.2121,3.641272 5.4043,9.199763 7.0937,12.352206 2.3633,4.4101 17.5764,31.68469 18.3988,32.986 0.088,0.13987 5.9712,1.76214 13.073,3.60505 7.1018,1.84291 13.5874,3.61501 14.4124,3.938 0.825,0.32299 3.5633,1.25769 6.0851,2.0771 17.3728,5.645 43.4555,17.67857 59.4149,27.41178 12.5801,7.67232 29.5,19.35384 29.5,20.36689 0,0.46579 0.4854,0.84688 1.0786,0.84688 3.0781,0 40.0787,34.44827 49.4272,46.01766 2.1151,2.61751 8.1,10.47697 15.5973,20.48234 12.118,16.17196 27.4389,43.29551 33.8912,60 1.2746,3.3 2.6974,6.4275 3.1616,6.95 0.4642,0.5225 0.8441,1.5399 0.8441,2.2609 0,0.72099 0.8477,3.21849 1.8837,5.55 2.5768,5.79856 6.6368,18.73544 9.5629,30.47098 19.1109,76.64892 10.4262,153.89958 -25.1966,224.12536 -4.2634,8.40477 -4.5226,6.63221 6.7453,46.14276 1.5694,5.50298 5.7147,22.89575 7.031,29.5 1.9786,9.92762 1.9557,9.93157 10.152,-1.75 z"
         id="path29" />
      <path
         style="fill:#000080"
         d="m 2313.4731,669.99125 c 0.5043,-1.2375 2.5216,-9 4.483,-17.25 3.367,-14.16227 6.6868,-27.02376 10.1958,-39.5 5.059,-17.98747 5.0149,-15.92816 0.5281,-24.65618 -44.9332,-87.4069 -46.2943,-203.80171 -3.3136,-283.34382 0.4458,-0.825 3.2123,-6 6.1478,-11.5 5.2667,-9.86772 21.7774,-35.48114 26.2158,-40.66903 1.2558,-1.46797 3.1834,-3.92864 4.2834,-5.46815 5.4782,-7.66705 29.9807,-33.61976 38.6006,-40.88514 14.3804,-12.12069 37.6882,-29.47768 39.584,-29.47768 0.3618,0 1.3973,-0.66912 2.3009,-1.48694 1.4484,-1.31078 20.3228,-11.95167 27.0221,-15.23436 5.7422,-2.81372 18.9437,-8.57841 24.9924,-10.91344 3.575,-1.38009 7.4,-2.89973 8.5,-3.37698 1.9104,-0.82889 16.8143,-5.33475 28.5,-8.6164 3.025,-0.84949 6.6007,-1.8726 7.946,-2.27356 1.656,-0.49354 3.553,-2.80752 5.8728,-7.16367 1.8847,-3.53906 4.8865,-8.90965 6.6706,-11.93465 1.7841,-3.025 4.5039,-7.75 6.044,-10.5 1.5401,-2.74999 4.5774,-8.149991 6.7496,-11.999991 2.1721,-3.85 5.3076,-9.475 6.9676,-12.5 1.6601,-3.025 3.4078,-5.9275 3.8839,-6.45 3.1313,-3.436995 0.9867,-4.853926 -6.3845,-4.218167 -23.8614,2.05802 -74.7906,13.853791 -86.75,20.09229 -1.375,0.717252 -3.7962,1.613549 -5.3804,1.99177 -12.4631,2.975443 -56.232,25.360688 -75.1196,38.419258 -12.7376,8.80656 -17.3422,12.05602 -19.2332,13.57283 -0.9718,0.77947 -5.5918,4.46993 -10.2668,8.20103 -28.9703,23.12106 -63.7574,62.41423 -80.9528,91.43874 -0.7991,1.34873 -3.6325,6.05224 -6.2966,10.45224 -13.0877,21.616 -27.5777,54.80865 -34.7381,79.57565 -6.6742,23.08518 -7.621,27.10039 -11.064,46.92435 -6.9125,39.80001 -6.4917,94.04873 1.0205,131.56002 2.5116,12.54125 5.0514,23.5615 7.0154,30.43998 1.1778,4.125 2.7822,9.86154 3.5653,12.74786 2.1547,7.94219 13.8464,38.1156 17.5344,45.25214 0.4263,0.825 2.6641,5.47543 4.9727,10.3343 2.3087,4.85886 6.6154,12.86386 9.5704,17.78888 2.955,4.92502 5.3728,9.13202 5.3728,9.34888 0,0.8646 14.3502,22.05029 15.1465,22.36127 0.4694,0.18334 0.8607,0.85834 0.8695,1.5 0.01,0.64167 1.3587,2.69015 3,4.55218 1.6412,1.86203 2.984,3.77453 2.984,4.25 0,1.76059 2.0732,0.79009 2.9597,-1.38551 z"
         id="path28" />
      <path
         style="fill:#f9f9f9"
         d="m 2653.9398,737.57246 c 0.8499,-2.21479 0.6156,-40.6452 -0.2564,-42.05612 -0.9177,-1.48482 -89.9479,-1.4105 -90.6861,-0.0798 -0.8099,1.46021 -0.5897,41.15843 0.4493,42.88806 1.2206,2.03177 89.6411,1.46828 90.4932,-0.75214 z"
         id="path27"
         sodipodi:nodetypes="sssss" />
      <path
         style="fill:#d40000"
         d="m 2686.4626,738.04578 c 19.9832,-5.23859 37.8432,-11.90231 56.5508,-21.09959 15.9381,-7.83573 15.9032,-7.6927 2.4953,-10.20791 -4.6724,-0.87652 -10.0703,-2.01163 -11.9953,-2.52247 -7.667,-2.03462 -53.2177,-7.90249 -61.75,-7.95468 -3.0408,-0.0186 -5.4782,42.41862 -2.6016,45.29524 0.7542,0.75416 1.9857,0.50428 17.3008,-3.51059 z"
         id="path26" />
      <path
         style="fill:#d40000"
         d="m 2551.4737,718.75423 c 0.062,-13.27705 -0.2788,-21.59178 -0.9008,-21.97617 -2.8673,-1.77213 -41.7592,3.14229 -71.9655,9.09365 -17.8003,3.50709 -17.7766,3.44435 -3.844,10.17752 9.9006,4.78463 12.665,6.04733 21.25,9.70627 5.9856,2.5511 29.4232,10.4781 34,11.49938 2.2,0.49092 7.375,1.73986 11.5,2.77542 10.3446,2.59696 9.8438,3.66656 9.9603,-21.27607 z"
         id="path25" />
      <path
         style="fill:#f9f9f9"
         d="m 2330.7531,740.57249 c 2.6069,-1.83218 4.977,-3.33124 5.267,-3.33124 0.29,0 3.7822,-1.94907 7.7603,-4.33126 12.4809,-7.47382 51.9845,-25.66874 55.7302,-25.66874 0.5665,0 1.8113,-0.42313 2.7663,-0.94028 2.1073,-1.14106 23.4197,-8.23724 31.7365,-10.56696 95.5021,-26.75221 218.7213,-29.66422 321,-7.58611 11.5793,2.49954 24.1805,5.61052 28,6.91261 1.65,0.5625 7.05,2.20956 12,3.66014 4.95,1.45057 9.9,3.04036 11,3.53286 1.1,0.49249 4.025,1.445 6.5,2.11668 2.475,0.67167 4.95,1.53379 5.5,1.91582 0.55,0.38203 2.8,1.26188 5,1.95524 2.2,0.69336 4.45,1.59693 5,2.00793 0.55,0.41101 2.125,1.08099 3.5,1.48883 3.6361,1.07853 16.7241,6.90062 28,12.45554 8.7975,4.33397 28.192,15.40888 32.5,18.55856 7.1705,5.24257 7.5701,4.35725 4.9692,-11.01086 -0.8377,-4.95 -2.1592,-12.825 -2.9367,-17.5 -0.7775,-4.675 -2.606,-14.125 -4.0632,-21 -1.4573,-6.875 -3.2559,-15.425 -3.9969,-19 -0.7411,-3.575 -3.4335,-14.6 -5.9831,-24.5 -2.5496,-9.9 -4.8663,-19.125 -5.1483,-20.5 -0.282,-1.375 -1.3272,-5.2 -2.3228,-8.5 -0.9955,-3.3 -2.7989,-9.375 -4.0074,-13.5 -4.1809,-14.27072 -12.122,-38.65306 -17.4244,-53.5 -1.375,-3.85 -3.2151,-9.025 -4.0891,-11.5 -0.8741,-2.475 -3.093,-8.325 -4.931,-13 -1.838,-4.675 -6.1458,-15.7 -9.5728,-24.5 -3.427,-8.8 -7.3026,-18.37584 -8.6123,-21.27964 -1.3097,-2.90379 -2.3812,-5.53579 -2.3812,-5.84887 0,-0.31308 -0.6383,-1.98724 -1.4183,-3.72036 -0.7801,-1.73312 -3.4913,-8.10113 -6.0249,-14.15113 -2.5336,-6.05 -5.2475,-12.35 -6.0309,-14 -0.7834,-1.65 -2.5588,-5.76706 -3.9453,-9.14902 -1.3866,-3.38197 -4.0438,-9.45697 -5.9051,-13.5 -1.8613,-4.04304 -4.6434,-10.27598 -6.1825,-13.85098 -1.5391,-3.575 -4.2526,-9.65 -6.0299,-13.5 -1.7773,-3.85 -4.3599,-9.475 -5.7389,-12.5 -3.307,-7.25394 -9.9304,-21.43816 -14.9427,-32 -2.2185,-4.675 -5.6086,-11.875 -7.5335,-16 -5.4275,-11.63147 -53.5503,-108.43713 -54.1846,-109 -0.3099,-0.275 -2.5755,-4.55 -5.0348,-9.5 -2.4592,-4.95 -6.3376,-12.375 -8.6186,-16.5 -2.2809,-4.125 -6.3089,-11.775 -8.951,-17 -2.6421,-5.225 -5.1763,-9.65 -5.6315,-9.83333 -0.4551,-0.18334 -0.8275,-0.77771 -0.8275,-1.32084 0,-0.83599 -12.4583,-24.06567 -20.0289,-37.34583 -1.2542,-2.2 -3.4822,-6.25 -4.9512,-9 -10.4033,-19.47506 -38.7818,-67.499991 -39.8866,-67.499991 -0.5908,0 -4.6377,6.467228 -9.6991,15.5 -2.9127,5.197958 -5.4553,9.525372 -9.1072,15.5 -2.1852,3.575 -5.3436,8.975 -7.0188,12.000001 -1.6751,3.025 -4.861,8.67148 -7.0797,12.54774 -2.2187,3.87625 -5.3713,9.50125 -7.0058,12.49999 -1.6344,2.99874 -4.4433,8.15226 -6.242,11.45226 -1.7986,3.3 -4.7801,8.61161 -6.6255,11.80358 -1.8454,3.19196 -3.3552,6.03845 -3.3552,6.32552 0,0.28708 -1.7356,3.52547 -3.8569,7.19643 -2.1214,3.67096 -6.3335,11.39947 -9.3603,17.17447 -3.0269,5.775 -7.533,14.325 -10.0136,19 -15.4941,29.20074 -49.6274,96.64952 -60.4744,119.5 -3.394,7.15 -9.2884,19.525 -13.0987,27.5 -7.7333,16.18603 -12.2463,25.8277 -15.9145,34 -1.3577,3.025 -3.5099,7.75 -4.7826,10.5 -1.2726,2.75 -3.3083,7.25 -4.5237,10 -1.2154,2.75 -3.7167,8.23953 -5.5584,12.19896 -1.8417,3.95943 -4.5356,10.03443 -5.9863,13.5 -1.4508,3.46557 -3.4411,8.10104 -4.4229,10.30104 -0.9819,2.2 -3.8902,8.95 -6.4629,15 -2.5728,6.05 -5.8261,13.64993 -7.2296,16.88873 -6.0468,13.95361 -19.3447,47.56799 -27.5383,69.61127 -1.1244,3.025 -2.434,6.4 -2.9102,7.5 -1.7426,4.02571 -16.4471,47.96882 -18.4044,55 -0.7655,2.75 -3.2215,11.3 -5.4578,19 -2.2362,7.7 -5.6423,20.525 -7.569,28.5 -1.9267,7.975 -3.9036,15.85 -4.3931,17.5 -0.4895,1.65 -1.4039,5.7 -2.0319,9 -0.628,3.3 -1.5499,7.35 -2.0486,9 -0.4986,1.65 -1.6323,7.05 -2.5191,12 -0.8869,4.95 -2.474,13.725 -3.527,19.5 -6.2427,34.23906 -6.3852,33.5608 5.3239,25.33124 z"
         id="path21" />
      <path
         style="fill:#000000"
         d="m 2834.5134,673.23733 c -3.575,-2.1098 -6.9531,-4.23751 -7.5068,-4.72826 -0.87,-0.77101 -8.0969,-4.6395 -16.4932,-8.82868 -7.4743,-3.72914 -21.449,-9.28 -31.5,-12.51212 -3.85,-1.23805 -7.9,-2.61157 -9,-3.05227 -8.4845,-3.3992 -42.4961,-10.77572 -62,-13.44674 -6.05,-0.82854 -13.025,-1.91522 -15.5,-2.41486 -4.193,-0.84646 -10.1297,-1.31153 -51,-3.99519 -46.8018,-3.07314 -142.3334,3.82043 -165,11.90643 -1.375,0.49051 -5.425,1.45055 -9,2.13341 -3.575,0.68287 -6.95,1.53958 -7.5,1.9038 -0.55,0.36422 -3.475,1.2282 -6.5,1.91995 -3.025,0.69176 -6.4,1.62952 -7.5,2.08391 -1.1,0.4544 -7.3552,2.72046 -13.9003,5.03569 -14.9802,5.29894 -20.3729,7.64022 -39.5786,17.18326 -8.5133,4.23017 -15.549,7.6067 -15.6347,7.50341 -0.4668,-0.56253 3.5059,-21.62799 7.6733,-40.68782 5.8577,-26.791 18.5851,-69.06868 31.9105,-106 2.2822,-6.325 4.7679,-13.3 5.5239,-15.5 2.9534,-8.59514 11.6579,-31.47861 14.1317,-37.15113 0.7558,-1.73312 1.3742,-3.46511 1.3742,-3.84887 0,-0.38376 0.6469,-2.11575 1.4375,-3.84887 1.7324,-3.79744 3.6506,-8.39013 8.2076,-19.65113 1.8918,-4.675 4.044,-9.85 4.7826,-11.5 0.7386,-1.65 3.46,-7.95 6.0477,-14 2.5876,-6.05 5.7489,-13.25 7.025,-16 1.2762,-2.75 4.1087,-9.05 6.2946,-14 2.1859,-4.95 5.6604,-12.6 7.7212,-17 2.0607,-4.4 6.2752,-13.3936 9.3653,-19.98578 6.1423,-13.10332 50.2763,-101.25803 54.3268,-108.51422 1.3816,-2.475 6.9062,-12.6 12.2769,-22.5 14.2033,-26.1814 40.6007,-72.18398 47.9143,-83.5 7.9686,-12.32951 6.0459,-13.3876 20.6438,11.36009 1.9012,3.22305 4.3567,7.37954 5.4567,9.23664 8.6319,14.5731 24.4681,42.44287 29.7765,52.40327 2.1985,4.125 4.3419,7.95 4.7632,8.5 0.4213,0.55 4.022,7.3 8.0016,15 3.9796,7.7 7.575,14.45 7.9899,15 3.6241,4.80471 48.3497,95.05349 61.6999,124.5 1.3715,3.025 4.468,9.69904 6.8812,14.83121 2.4132,5.13216 4.3877,9.50632 4.3877,9.72036 0,0.21404 1.1735,2.99 2.6079,6.16879 3.2991,7.31144 4.5306,10.13522 13.6417,31.27964 14.6489,33.99626 33.3636,84.40044 42.6986,115 1.7618,5.775 3.5754,11.625 4.0302,13 7.28,22.01044 15.4141,54.40108 22.9781,91.5 1.682,8.25 3.2885,16.0125 3.5699,17.25 0.6631,2.91579 0.2057,2.80919 -7.5264,-1.75392 z"
         id="path22" />
      <path
         style="fill:#f9f9f9"
         d="m 2562.3015,567.04372 c 0.3212,-9.69205 1.1245,-8.86027 -9.7881,-10.13496 -38.9229,-4.54654 -39.7588,-8.60229 -15.1307,-73.41751 1.6149,-4.25 1.6149,-4.25 51.2589,-4.25 52.9446,0 52.8718,-0.0103 52.8718,7.5 0,0.38376 0.6532,2.11575 1.4515,3.84887 0.7983,1.73312 3.5348,8.32613 6.0812,14.65113 2.5463,6.325 5.2439,12.85 5.9946,14.5 14.1509,31.10123 12.8623,33.1498 -23.5273,37.40291 -8.0098,0.93616 -10.257,6.07319 -7.3697,16.84709 2.3581,8.7992 160.3697,2.1931 160.3697,-6.70469 0,-8.95468 0,-8.95468 -3.75,-9.51731 -24.9529,-3.7438 -35.4713,-11.51136 -44.0474,-32.528 -7.7213,-18.92188 -12.2443,-29.63934 -13.1825,-31.23643 -0.5611,-0.95504 -1.0201,-2.21428 -1.0201,-2.79831 0,-0.58403 -0.9,-2.92466 -2,-5.2014 -1.1,-2.27673 -2,-4.5099 -2,-4.96259 0,-0.45269 -0.8845,-2.73066 -1.9655,-5.06217 -2.5911,-5.58853 -20.7529,-50.9719 -22.7061,-56.7391 -0.8383,-2.475 -1.9301,-4.9275 -2.4263,-5.45 -0.4962,-0.5225 -0.9021,-1.55674 -0.9021,-2.29831 0,-0.74156 -0.9,-3.21109 -2,-5.48783 -1.1,-2.27673 -2,-4.5099 -2,-4.96259 0,-0.45269 -0.8363,-2.73066 -1.8584,-5.06217 -3.0805,-7.02699 -3.742,-8.65515 -21.833,-53.7391 -9.6004,-23.925 -18.0465,-44.85 -18.769,-46.5 -0.7226,-1.65 -2.5934,-6.04599 -4.1574,-9.76886 -2.8437,-6.76886 -2.8437,-6.76886 -24.2816,-6.5 -23.5771,0.29569 -20.2708,-3.61434 -42.0833,49.76886 -8.3932,20.54119 -9.2151,22.51807 -10.0081,24.07064 -0.4412,0.86385 -2.032,4.68885 -3.5353,8.5 -1.5032,3.81115 -3.6142,8.90371 -4.6911,11.31681 -1.0769,2.4131 -4.3486,10.2881 -7.2704,17.5 -7.9934,19.73017 -15.4374,37.74113 -17.0136,41.16514 -0.7729,1.67893 -3.8464,9.10393 -6.8299,16.5 -2.9835,7.39608 -5.9928,14.79741 -6.6873,16.44741 -0.6945,1.65 -1.8316,4.35 -2.5269,6 -0.6953,1.65 -2.4601,5.925 -3.9219,9.5 -1.4617,3.575 -3.3046,7.91801 -4.0953,9.65113 -0.7906,1.73312 -1.4403,3.53312 -1.4437,4 0,0.46688 -0.6898,2.15991 -1.5255,3.76229 -0.8356,1.60238 -3.5947,8.12738 -6.1312,14.5 -12.9719,32.5891 -23.4929,41.70764 -52.5871,45.57735 -4.446,0.59134 -7.5853,14.34064 -4.0756,17.8503 6.9321,6.93212 120.8673,-1.10038 121.1137,-8.5386 z"
         id="path23" />
      <path
         style="fill:#000000"
         d="m 2550.0494,452.99125 c 0.3822,-1.7875 1.0175,-3.7 1.4119,-4.25 0.3943,-0.55 1.2108,-2.35 1.8146,-4 0.6037,-1.65 6.3426,-16.275 12.7531,-32.5 6.4105,-16.225 12.7786,-32.425 14.1515,-36 5.2575,-13.69106 7.5731,-19.51326 7.9039,-19.87366 0.3598,-0.39203 5.429,10.26024 5.429,11.40845 0,0.36463 0.6381,2.08096 1.418,3.81408 3.3613,7.46933 5.582,12.97004 5.582,13.82655 0,0.50666 0.9,2.78398 2,5.06072 1.1,2.27673 2,4.49166 2,4.92205 0,0.4304 1.0706,3.15838 2.3791,6.06217 1.3085,2.9038 4.0176,9.55464 6.0202,14.77964 2.0027,5.225 4.3191,11.00308 5.1478,12.84018 0.8286,1.83711 3.0783,7.46211 4.9994,12.5 1.9211,5.0379 3.9341,9.94121 4.4732,10.89625 0.5392,0.95504 0.9803,2.19254 0.9803,2.75 0,0.66769 -13.5066,1.01357 -39.5795,1.01357 -39.5794,0 -39.5794,0 -38.8845,-3.25 z"
         id="path24" />
      <path
         style="fill:#000080"
         d="m 2640.9457,818.18625 c 28.8793,-3.36002 35.2699,-4.30133 47.0677,-6.93286 11.7095,-2.61184 23.802,-5.77848 36.5,-9.55816 8.5106,-2.53327 33.7196,-12.18697 38.9887,-14.93058 1.3812,-0.71918 6.7863,-3.38163 12.0113,-5.91657 17.3682,-8.42629 25.3323,-12.97505 39.7792,-22.72026 2.3536,-1.58762 4.7161,-2.88657 5.25,-2.88657 0.5339,0 0.9708,-0.35298 0.9708,-0.78439 0,-0.43142 1.4625,-1.64004 3.25,-2.68583 5.2733,-3.08522 15.601,-10.92781 16.1632,-12.27388 0.7643,-1.83031 -37.418,-18.2559 -42.437,-18.2559 -0.5518,0 -1.7848,-0.41261 -2.7398,-0.91691 -1.7036,-0.89958 -8.2053,-2.85924 -17.3442,-5.22767 -4.1809,-1.08353 -4.8834,-0.9979 -7.5829,0.92435 -4.656,3.31534 -28.8084,15.37345 -39.3093,19.62519 -5.225,2.11556 -10.85,4.41053 -12.5,5.09992 -52.9765,22.13432 -131.5459,25.14894 -195,7.48192 -7.9943,-2.22579 -28.0241,-9.20188 -28.95,-10.08289 -0.5225,-0.49715 -1.6161,-0.90391 -2.4303,-0.90391 -2.5945,0 -33.4294,-14.84657 -44.75,-21.54652 -2.804,-1.65949 -3.5858,-1.71477 -7.5,-0.53035 -2.4034,0.72724 -6.6197,1.97418 -9.3697,2.77097 -2.75,0.79679 -5.9,1.84629 -7,2.33222 -1.1,0.48593 -4.25,1.55641 -7,2.37884 -6.9474,2.07773 -11.3186,3.73479 -24,9.09813 -6.05,2.55871 -11.7875,4.8947 -12.75,5.19109 -3.0865,0.95044 -1.8962,3.03142 4.2733,7.47113 3.3129,2.38397 7.2504,5.34644 8.75,6.58327 1.4997,1.23683 3.2517,2.24933 3.8933,2.25 0.6417,6.7e-4 1.3167,0.33872 1.5,0.75122 0.4544,1.02233 8.5432,7.25 9.4167,7.25 0.3853,0 3.6742,1.87895 7.3086,4.17544 7.0057,4.42669 39.5263,21.11135 47.1081,24.16876 2.475,0.99806 6.975,2.85377 10,4.12379 3.025,1.27003 9.325,3.54557 14,5.05678 4.675,1.5112 9.4,3.12831 10.5,3.59356 1.1,0.46525 3.8,1.27255 6,1.794 2.2,0.52144 6.475,1.66664 9.5,2.54488 11.7277,3.40489 35.6521,8.01562 49.5,9.53968 6.05,0.66584 13.475,1.5596 16.5,1.98613 8.3783,1.18135 52.1811,1.15467 62.4323,-0.038 z"
         id="path20" />
    </g>
  </g>
  <g
     inkscape:groupmode="layer"
     id="layer1"
     inkscape:label="Image 1"
     transform="translate(-2222.7984,-22.107158)" />
</svg>
